<svg width="20" height="22" viewBox="0 0 20 22" fill="none" xmlns="http://www.w3.org/2000/svg">
<path fill-rule="evenodd" clip-rule="evenodd" d="M9.99992 1.78247C5.67871 1.78247 2.14575 5.36731 2.14575 9.82677C2.14575 12.0755 3.04517 14.5658 4.5169 16.4889C5.99243 18.417 7.94538 19.6575 9.99992 19.6575C12.0545 19.6575 14.0074 18.417 15.483 16.4889C16.9547 14.5658 17.8541 12.0755 17.8541 9.82677C17.8541 5.36731 14.3211 1.78247 9.99992 1.78247ZM0.520752 9.82677C0.520752 4.50326 4.74819 0.157471 9.99992 0.157471C15.2516 0.157471 19.4791 4.50326 19.4791 9.82677C19.4791 12.4696 18.4384 15.3009 16.7735 17.4764C15.1123 19.6471 12.7319 21.2825 9.99992 21.2825C7.26799 21.2825 4.8876 19.6471 3.22642 17.4764C1.56143 15.3009 0.520752 12.4696 0.520752 9.82677Z" fill="#050B20"/>
</svg>
