<svg width="18" height="18" viewBox="0 0 18 18" fill="none" xmlns="http://www.w3.org/2000/svg">
<path d="M17.0544 0.100342H6.63858C6.37688 0.100342 6.16512 0.312106 6.16512 0.573804C6.16512 0.835502 6.37688 1.04727 6.63858 1.04727H15.9115L0.62245 16.3363C0.437495 16.5213 0.437495 16.8209 0.62245 17.0058C0.714906 17.0982 0.836079 17.1445 0.957208 17.1445C1.07834 17.1445 1.19947 17.0982 1.29197 17.0058L16.581 1.71673V10.9897C16.581 11.2514 16.7927 11.4631 17.0544 11.4631C17.3162 11.4631 17.5279 11.2514 17.5279 10.9897V0.573804C17.5279 0.312106 17.3161 0.100342 17.0544 0.100342Z" fill="#405FF2"/>
</svg>
