<svg width="33" height="26" viewBox="0 0 33 26" fill="none" xmlns="http://www.w3.org/2000/svg">
<path d="M1.43597 13.2915L11.0282 24.6503C11.2692 24.9357 11.6592 24.9357 11.9002 24.6503C12.1412 24.3649 12.1412 23.903 11.9002 23.6176L3.36056 13.5052L31.5206 13.5052C31.8612 13.5053 32.1372 13.1785 32.1371 12.7752C32.1371 12.5736 32.0681 12.391 31.9565 12.2589C31.845 12.1268 31.6908 12.0451 31.5206 12.045L3.36056 12.0451L11.9002 1.93269C12.1412 1.6473 12.1413 1.18549 11.9002 0.900051C11.6592 0.614606 11.2692 0.614659 11.0282 0.90005L1.43597 12.2588C1.19497 12.5442 1.19503 13.0062 1.43597 13.2915Z" fill="#C1C1C1" stroke="#C1C1C1" stroke-width="1.10564"/>
</svg>
