<svg width="135" height="135" viewBox="0 0 135 135" fill="none" xmlns="http://www.w3.org/2000/svg">
<g clip-path="url(#clip0_2773_283)">
<g clip-path="url(#clip1_2773_283)">
<path d="M21.5938 103.081V31.9156C21.5938 17.4761 33.2708 5.77051 47.6754 5.77051H31.7945C17.3489 5.77051 5.63867 17.4807 5.63867 31.9263V103.07C5.63867 117.516 17.3489 129.226 31.7945 129.226H47.6754C33.2708 129.226 21.5938 117.521 21.5938 103.081Z" fill="#CEE1F2"/>
<path d="M88.8119 127.769C86.1096 128.712 83.2049 129.226 80.1806 129.226H32.0537C17.6081 129.226 5.89789 117.516 5.89789 103.07V31.9263C5.89789 17.4807 17.6081 5.77051 32.0537 5.77051H80.1806C94.6259 5.77051 106.336 17.4807 106.336 31.9263V59.39M67.3642 100.716H87.2427M26.8226 100.455L31.6311 105.435C33.701 107.513 37.0574 107.513 39.1274 105.435L49.0551 95.2235" stroke="#405FF2" stroke-width="6.08719" stroke-miterlimit="10" stroke-linecap="round" stroke-linejoin="round"/>
<path d="M128.556 85.8363C122.802 83.5984 118.997 83.2788 116.146 83.2788C110.85 83.2788 106.6 87.5725 106.6 92.8693C106.6 98.1661 111.351 102.46 118.384 102.46C124.458 102.46 129.355 106.754 129.355 112.05C129.355 117.347 124.799 121.641 119.503 121.641C117.026 121.641 111.511 120.837 106.076 118.677M118.37 83.2788V74.8217M118.37 121.641V129.226M71.0276 70.8984V72.9908M42.2562 70.8984V72.9908" stroke="#FF5CF4" stroke-width="6.08719" stroke-miterlimit="10" stroke-linecap="round" stroke-linejoin="round"/>
<path d="M84.104 45.2658H83.6759C83.6636 45.2369 83.6547 45.2072 83.642 45.1786L78.9526 34.7739C78.9482 34.7642 78.9439 34.7548 78.9396 34.745C76.7594 29.985 72.4092 26.497 67.302 25.415C64.269 24.7726 60.5642 24.3411 56.5263 24.3411C52.5671 24.3411 48.9766 24.7574 46.0344 25.3773C40.9039 26.4587 36.5372 29.9497 34.354 34.7161C34.3495 34.7257 34.3453 34.7354 34.3408 34.745L29.6386 45.1784C29.6258 45.2068 29.6172 45.2367 29.6049 45.2655H29.1767C26.2875 45.2655 23.9455 47.6075 23.9455 50.4966C23.9455 53.3858 26.2875 55.7278 29.1767 55.7278V60.5625C29.1767 67.2714 34.5528 72.7294 41.1608 72.7294H72.1196C78.728 72.7294 84.104 67.2714 84.104 60.5627V55.7281C86.9931 55.7281 89.3351 53.3861 89.3351 50.497C89.3351 47.6077 86.9931 45.2658 84.104 45.2658ZM43.8718 39.0607C44.6821 37.302 46.2962 36.0145 48.1917 35.615C50.106 35.2117 52.8966 34.8034 56.5265 34.8034C60.2391 34.8034 63.1471 35.2295 65.1337 35.6503C67.0111 36.0482 68.6131 37.3334 69.4221 39.0898L72.2054 45.2658H41.0752L43.8718 39.0607ZM43.3008 65.1442C39.8339 65.1442 37.0234 62.3337 37.0234 58.8668C37.0234 55.3998 39.8339 52.5894 43.3008 52.5894C46.7678 52.5894 49.5783 55.3998 49.5783 58.8668C49.5783 62.3337 46.7678 65.1442 43.3008 65.1442ZM69.9798 65.1442C66.5128 65.1442 63.7024 62.3337 63.7024 58.8668C63.7024 55.3998 66.5128 52.5894 69.9798 52.5894C73.4467 52.5894 76.2572 55.3998 76.2572 58.8668C76.2572 62.3337 73.4467 65.1442 69.9798 65.1442Z" fill="#FF5CF4"/>
</g>
</g>
<defs>
<clipPath id="clip0_2773_283">
<rect width="133.918" height="133.918" fill="white" transform="translate(0.667847 0.539307)"/>
</clipPath>
<clipPath id="clip1_2773_283">
<rect width="133.918" height="133.918" fill="white" transform="translate(0.668152 0.539307)"/>
</clipPath>
</defs>
</svg>
