<svg width="16" height="12" viewBox="0 0 16 12" fill="none" xmlns="http://www.w3.org/2000/svg">
<path d="M14.78 4.32014H15.32C15.48 4.32014 15.61 4.26014 15.71 4.14014C15.81 4.02014 15.86 3.89014 15.86 3.75014C15.86 3.61014 15.81 3.48014 15.71 3.36014C15.61 3.24014 15.48 3.18014 15.32 3.18014H13.94L13.1 1.74014C12.82 1.30014 12.47 0.960137 12.05 0.720137C11.63 0.480137 11.16 0.360137 10.64 0.360137H5.36001C4.84001 0.360137 4.37001 0.480137 3.95001 0.720137C3.53001 0.960137 3.18001 1.30014 2.90001 1.74014L2.06001 3.18014H0.680015C0.520015 3.18014 0.390015 3.24014 0.290015 3.36014C0.190015 3.48014 0.140015 3.61014 0.140015 3.75014C0.140015 3.89014 0.190015 4.02014 0.290015 4.14014C0.390015 4.26014 0.520015 4.32014 0.680015 4.32014H1.28001L0.920015 4.74014C0.400015 5.46014 0.140015 6.26014 0.140015 7.14014V9.96014C0.140015 10.4001 0.300015 10.7901 0.620015 11.1301C0.940015 11.4701 1.34001 11.6401 1.82001 11.6401H2.96001C3.40001 11.6401 3.79001 11.4701 4.13001 11.1301C4.47001 10.7901 4.64001 10.4001 4.64001 9.96014H11.36C11.36 10.4001 11.53 10.7901 11.87 11.1301C12.21 11.4701 12.6 11.6401 13.04 11.6401H14.18C14.66 11.6401 15.06 11.4701 15.38 11.1301C15.7 10.7901 15.86 10.4001 15.86 9.96014V7.14014C15.86 6.26014 15.6 5.46014 15.08 4.74014L14.78 4.32014ZM3.86001 2.34014C4.02001 2.06014 4.23001 1.85014 4.49001 1.71014C4.75001 1.57014 5.04001 1.50014 5.36001 1.50014H10.64C10.96 1.50014 11.25 1.57014 11.51 1.71014C11.77 1.85014 11.98 2.06014 12.14 2.34014L12.86 3.60014L12.5 3.84014C12.02 4.16014 11.5 4.32014 10.94 4.32014H5.06001C4.50001 4.32014 3.98001 4.16014 3.50001 3.84014L3.14001 3.60014L3.86001 2.34014ZM14.78 9.96014C14.78 10.0801 14.72 10.2001 14.6 10.3201C14.48 10.4401 14.34 10.5001 14.18 10.5001H13.04C12.92 10.5001 12.8 10.4401 12.68 10.3201C12.56 10.2001 12.5 10.0801 12.5 9.96014V9.36014C12.5 9.20014 12.45 9.07014 12.35 8.97014C12.25 8.87014 12.12 8.82014 11.96 8.82014H4.04001C3.88001 8.82014 3.75001 8.87014 3.65001 8.97014C3.55001 9.07014 3.50001 9.20014 3.50001 9.36014V9.96014C3.50001 10.0801 3.44001 10.2001 3.32001 10.3201C3.20001 10.4401 3.08001 10.5001 2.96001 10.5001H1.82001C1.66001 10.5001 1.52001 10.4401 1.40001 10.3201C1.28001 10.2001 1.22001 10.0801 1.22001 9.96014V7.14014C1.26001 6.50014 1.46001 5.94014 1.82001 5.46014L2.48001 4.50014L2.90001 4.80014C3.58001 5.24014 4.30001 5.46014 5.06001 5.46014H10.94C11.7 5.46014 12.42 5.24014 13.1 4.80014L13.52 4.50014L14.18 5.46014C14.54 5.94014 14.72 6.50014 14.72 7.14014V9.96014H14.78ZM12.5 7.14014C12.5 7.30014 12.55 7.43014 12.65 7.53014C12.75 7.63014 12.88 7.68014 13.04 7.68014C13.2 7.68014 13.34 7.63014 13.46 7.53014C13.58 7.43014 13.64 7.30014 13.64 7.14014C13.64 6.98014 13.58 6.84014 13.46 6.72014C13.34 6.60014 13.2 6.54014 13.04 6.54014C12.88 6.54014 12.75 6.60014 12.65 6.72014C12.55 6.84014 12.5 6.98014 12.5 7.14014ZM2.36001 7.14014C2.36001 7.30014 2.42001 7.43014 2.54001 7.53014C2.66001 7.63014 2.80001 7.68014 2.96001 7.68014C3.12001 7.68014 3.25001 7.63014 3.35001 7.53014C3.45001 7.43014 3.50001 7.30014 3.50001 7.14014C3.50001 6.98014 3.45001 6.84014 3.35001 6.72014C3.25001 6.60014 3.12001 6.54014 2.96001 6.54014C2.80001 6.54014 2.66001 6.60014 2.54001 6.72014C2.42001 6.84014 2.36001 6.98014 2.36001 7.14014Z" fill="#050B20"/>
</svg>
