<svg width="27" height="22" viewBox="0 0 27 22" fill="none" xmlns="http://www.w3.org/2000/svg">
<path d="M23.0066 0.849854H4.54214C2.54138 0.849854 0.915192 2.47604 0.915192 4.4768V17.6657C0.915192 19.6664 2.54138 21.2927 4.54214 21.2927H23.0066C25.0074 21.2927 26.6335 19.6664 26.6335 17.6657V4.4768C26.6335 2.47604 25.0074 0.849854 23.0066 0.849854ZM23.0066 2.82818C23.037 2.82818 23.0633 2.84401 23.0924 2.84534L14.7635 9.09292C14.1806 9.52947 13.3669 9.52947 12.7852 9.09292L4.45641 2.84534C4.48675 2.84401 4.5118 2.82818 4.54214 2.82818H23.0066ZM24.6552 17.6657C24.6552 18.5744 23.9154 19.3144 23.0066 19.3144H4.54214C3.63342 19.3144 2.89353 18.5744 2.89353 17.6657V4.4768C2.89353 4.37524 2.93441 4.28688 2.95156 4.19061L11.5982 10.6756C12.2392 11.1557 13.0068 11.3957 13.7744 11.3957C14.542 11.3957 15.3109 11.1557 15.9505 10.6756L24.5971 4.19061C24.6143 4.28688 24.6552 4.37524 24.6552 4.4768V17.6657Z" fill="#050B20"/>
</svg>
