<svg width="12" height="16" viewBox="0 0 12 16" fill="none" xmlns="http://www.w3.org/2000/svg">
<path d="M10.1439 15.5674C9.85173 15.5674 9.57577 15.4862 9.31605 15.3239L6.15072 13.3273C6.05332 13.2624 5.95593 13.2624 5.85853 13.3273L2.6932 15.3239C2.40101 15.5187 2.07636 15.5917 1.71925 15.543C1.36213 15.4943 1.05372 15.3564 0.793997 15.1291C0.469347 14.8369 0.307022 14.4636 0.307022 14.0091V2.51646C0.307022 2.09441 0.461231 1.72918 0.769648 1.42077C1.07807 1.11235 1.4433 0.95814 1.86534 0.95814H10.1439C10.566 0.95814 10.9312 1.11235 11.2396 1.42077C11.548 1.72918 11.7022 2.09441 11.7022 2.51646V14.0091C11.7022 14.4311 11.548 14.7963 11.2396 15.1048C10.9312 15.4132 10.566 15.5674 10.1439 15.5674ZM6.00463 12.0125C6.29681 12.0125 6.57276 12.0936 6.83248 12.256L9.99782 14.2526C10.0303 14.285 10.079 14.3012 10.1439 14.3012C10.2088 14.3012 10.2657 14.2769 10.3144 14.2282C10.3631 14.1795 10.3874 14.1065 10.3874 14.0091V2.51646C10.3874 2.41906 10.3631 2.34602 10.3144 2.29732C10.2657 2.24862 10.2088 2.22427 10.1439 2.22427H1.86534C1.80041 2.22427 1.7436 2.24862 1.6949 2.29732C1.6462 2.34602 1.62185 2.41906 1.62185 2.51646V14.0091C1.62185 14.1065 1.66244 14.1876 1.7436 14.2526C1.82476 14.3175 1.91404 14.3175 2.01143 14.2526L5.17677 12.256C5.43649 12.0936 5.71244 12.0125 6.00463 12.0125Z" fill="#050B20"/>
</svg>
