<svg width="23" height="22" viewBox="0 0 23 22" fill="none" xmlns="http://www.w3.org/2000/svg">
<g clip-path="url(#clip0_2773_207)">
<path d="M13.9669 4.13888C13.9669 3.94409 13.906 3.78582 13.7843 3.66408C13.6625 3.54234 13.5043 3.48146 13.3095 3.48146H6.44314C6.24835 3.48146 6.09009 3.54234 5.96834 3.66408C5.8466 3.78582 5.78573 3.94409 5.78573 4.13888V9.61735C5.78573 9.81214 5.8466 9.98258 5.96834 10.1287C6.09009 10.2748 6.24835 10.3478 6.44314 10.3478H13.3095C13.5043 10.3478 13.6625 10.2748 13.7843 10.1287C13.906 9.98258 13.9669 9.81214 13.9669 9.61735V4.13888ZM12.579 8.95993H7.10056V4.86934H12.579V8.95993ZM21.8559 4.86934L19.0801 3.55451C18.934 3.45712 18.7636 3.43277 18.5688 3.48146C18.374 3.53016 18.2401 3.63973 18.1671 3.81017C18.094 3.98061 18.0818 4.16323 18.1305 4.35802C18.1792 4.55281 18.301 4.67455 18.4958 4.72325L19.5184 5.30762L19.4454 5.52676C19.4454 5.96504 19.5793 6.35462 19.8471 6.6955C20.115 7.03638 20.4437 7.27987 20.8332 7.42596V15.7532C20.8332 15.948 20.7602 16.1185 20.6141 16.2646C20.468 16.4106 20.3097 16.4837 20.1393 16.4837C19.9689 16.4837 19.8106 16.4106 19.6645 16.2646C19.5184 16.1185 19.4454 15.948 19.4454 15.7532V10.2748C19.4454 9.4956 19.1654 8.78949 18.6053 8.15642C18.0453 7.52335 17.4244 7.13377 16.7427 6.98768V2.751C16.7427 2.02054 16.4748 1.38747 15.9392 0.851799C15.4035 0.316128 14.7704 0.0482922 14.0399 0.0482922H5.78573C5.05527 0.0482922 4.41002 0.316128 3.85 0.851799C3.28998 1.38747 3.00997 2.02054 3.00997 2.751V18.0907L2.06037 18.602C1.76819 18.7481 1.62209 18.9429 1.62209 19.1864V21.2317C1.62209 21.4265 1.69514 21.5969 1.84123 21.743C1.98732 21.8891 2.15777 21.9622 2.35256 21.9622H17.4001C17.5949 21.9622 17.7531 21.8891 17.8749 21.743C17.9966 21.5969 18.0575 21.4265 18.0575 21.2317V19.1864C18.0575 18.9429 17.9357 18.7481 17.6923 18.602L16.7427 18.0907V8.37556C17.0835 8.52165 17.3879 8.77732 17.6557 9.14255C17.9236 9.50778 18.0575 9.88518 18.0575 10.2748V15.7532C18.0575 16.3376 18.2645 16.8367 18.6784 17.2507C19.0923 17.6646 19.5793 17.8716 20.1393 17.8716C20.6993 17.8716 21.1863 17.6646 21.6002 17.2507C22.0142 16.8367 22.2211 16.3376 22.2211 15.7532V5.52676C22.2211 5.23457 22.0994 5.01543 21.8559 4.86934ZM16.7427 20.5743H3.00997V19.6247L4.03262 19.1134C4.27611 19.016 4.39785 18.8212 4.39785 18.529V2.751C4.39785 2.41012 4.53177 2.10576 4.7996 1.83792C5.06744 1.57009 5.39615 1.43617 5.78573 1.43617H14.0399C14.3808 1.43617 14.6852 1.57009 14.953 1.83792C15.2209 2.10576 15.3548 2.41012 15.3548 2.751V18.529C15.3548 18.8212 15.4765 19.016 15.72 19.1134L16.7427 19.6247V20.5743Z" fill="#050B20"/>
</g>
<defs>
<clipPath id="clip0_2773_207">
<rect width="21.9139" height="21.9139" fill="white" transform="matrix(1 0 0 -1 0.96344 21.9622)"/>
</clipPath>
</defs>
</svg>
