<svg width="17" height="17" viewBox="0 0 17 17" fill="none" xmlns="http://www.w3.org/2000/svg">
<path d="M8.51453 4.32449C10.7616 4.32449 12.6162 6.17918 12.6162 8.42621C12.6162 10.7089 10.7616 12.5279 8.51453 12.5279C6.23183 12.5279 4.41281 10.7089 4.41281 8.42621C4.41281 6.17918 6.23183 4.32449 8.51453 4.32449ZM8.51453 11.1012C9.97688 11.1012 11.1539 9.92423 11.1539 8.42621C11.1539 6.96386 9.97688 5.78684 8.51453 5.78684C7.01651 5.78684 5.8395 6.96386 5.8395 8.42621C5.8395 9.92423 7.05218 11.1012 8.51453 11.1012ZM13.7219 4.18182C13.7219 4.71683 13.2939 5.14484 12.7589 5.14484C12.2239 5.14484 11.7959 4.71683 11.7959 4.18182C11.7959 3.64682 12.2239 3.21881 12.7589 3.21881C13.2939 3.21881 13.7219 3.64682 13.7219 4.18182ZM16.4326 5.14484C16.504 6.46452 16.504 10.4236 16.4326 11.7432C16.3613 13.0273 16.076 14.1329 15.1486 15.096C14.2213 16.0233 13.0799 16.3086 11.7959 16.38C10.4762 16.4513 6.51717 16.4513 5.19749 16.38C3.91347 16.3086 2.80779 16.0233 1.84478 15.096C0.917436 14.1329 0.632099 13.0273 0.560765 11.7432C0.489431 10.4236 0.489431 6.46452 0.560765 5.14484C0.632099 3.86082 0.917436 2.71947 1.84478 1.79213C2.80779 0.864784 3.91347 0.579447 5.19749 0.508113C6.51717 0.436779 10.4762 0.436779 11.7959 0.508113C13.0799 0.579447 14.2213 0.864784 15.1486 1.79213C16.076 2.71947 16.3613 3.86082 16.4326 5.14484ZM14.7206 13.1343C15.1486 12.0999 15.0416 9.60322 15.0416 8.42621C15.0416 7.28486 15.1486 4.78816 14.7206 3.71815C14.4353 3.04048 13.9003 2.4698 13.2226 2.22013C12.1526 1.79213 9.65588 1.89913 8.51453 1.89913C7.33751 1.89913 4.84082 1.79213 3.80647 2.22013C3.09313 2.50547 2.55812 3.04048 2.27279 3.71815C1.84478 4.78816 1.95178 7.28486 1.95178 8.42621C1.95178 9.60322 1.84478 12.0999 2.27279 13.1343C2.55812 13.8476 3.09313 14.3826 3.80647 14.668C4.84082 15.096 7.33751 14.989 8.51453 14.989C9.65588 14.989 12.1526 15.096 13.2226 14.668C13.9003 14.3826 14.4709 13.8476 14.7206 13.1343Z" fill="#050B20"/>
<a href="https://www.figma.com/design/PzQUNVEIeMrv8HjdXbjYra?node-id=17-1527">
<rect fill="black" fill-opacity="0" x="0.217084" y="-1.36962" width="15.9789" height="21.0008"/>
</a>
</svg>
