<svg width="17" height="17" viewBox="0 0 17 17" fill="none" xmlns="http://www.w3.org/2000/svg">
<path d="M3.7465 16.2743H0.429461V5.60983H3.7465V16.2743ZM2.07015 4.18315C1.0358 4.18315 0.179791 3.29147 0.179791 2.22145C0.179791 1.18711 1.0358 0.331099 2.07015 0.331099C3.14016 0.331099 3.99617 1.18711 3.99617 2.22145C3.99617 3.29147 3.14016 4.18315 2.07015 4.18315ZM16.123 16.2743H12.8416V11.1026C12.8416 9.85421 12.8059 8.28486 11.0939 8.28486C9.3819 8.28486 9.13223 9.60454 9.13223 10.9956V16.2743H5.81519V5.60983H8.98956V7.07218H9.02523C9.4889 6.25184 10.5589 5.36016 12.1639 5.36016C15.5166 5.36016 16.1587 7.57152 16.1587 10.4249V16.2743H16.123Z" fill="#050B20"/>
<a href="https://www.figma.com/design/PzQUNVEIeMrv8HjdXbjYra?node-id=17-1527">
<rect fill="black" fill-opacity="0" x="0.217084" y="-1.36962" width="15.9789" height="21.0008"/>
</a>
</svg>
