<svg width="23" height="18" viewBox="0 0 23 18" fill="none" xmlns="http://www.w3.org/2000/svg">
<path d="M22.0942 10.9776C22.0942 13.4612 21.3637 15.6769 19.9028 17.6248C19.7567 17.8196 19.5619 17.9292 19.3184 17.9535C19.0749 17.9779 18.8558 17.917 18.661 17.7709C18.4662 17.6248 18.3567 17.4422 18.3323 17.2231C18.308 17.0039 18.3688 16.797 18.5149 16.6022C19.7811 14.9465 20.4141 13.0716 20.4141 10.9776C20.4141 9.3219 20.0002 7.78793 19.1723 6.3757C18.3445 4.96347 17.2123 3.84343 15.7757 3.01557C14.3391 2.18772 12.793 1.77379 11.1372 1.77379C9.48154 1.77379 7.93539 2.18772 6.49882 3.01557C5.06224 3.84343 3.93002 4.96347 3.10217 6.3757C2.27431 7.78793 1.86038 9.3219 1.86038 10.9776C1.86038 13.0716 2.49345 14.9465 3.75958 16.6022C3.90567 16.797 3.96655 17.0039 3.9422 17.2231C3.91785 17.4422 3.80828 17.6248 3.61349 17.7709C3.4187 17.917 3.19956 17.9779 2.95607 17.9535C2.71259 17.9292 2.5178 17.8196 2.3717 17.6248C0.910779 15.6769 0.180317 13.4612 0.180317 10.9776C0.180317 9.02971 0.667292 7.21573 1.64124 5.53567C2.61519 3.85561 3.9422 2.5286 5.62226 1.55465C7.30232 0.580702 9.14065 0.0937271 11.1372 0.0937271C13.1338 0.0937271 14.9722 0.580702 16.6522 1.55465C18.3323 2.5286 19.6593 3.85561 20.6333 5.53567C21.6072 7.21573 22.0942 9.02971 22.0942 10.9776ZM16.5427 5.86438C16.7375 6.01047 16.8349 6.20526 16.8349 6.44875C16.8349 6.69223 16.7375 6.88702 16.5427 7.03312L13.7669 9.88192C14.0104 10.3202 14.1321 10.7828 14.1321 11.2698C14.1321 12.0977 13.84 12.8038 13.2556 13.3881C12.6712 13.9725 11.9651 14.2647 11.1372 14.2647C10.3094 14.2647 9.60328 13.9725 9.01891 13.3881C8.43454 12.8038 8.14235 12.0977 8.14235 11.2698C8.14235 10.4419 8.43454 9.73583 9.01891 9.15146C9.60328 8.56709 10.3094 8.2749 11.1372 8.2749C11.6242 8.2749 12.0869 8.39664 12.5251 8.64013L15.3739 5.86438C15.52 5.66959 15.7148 5.57219 15.9583 5.57219C16.2018 5.57219 16.3966 5.66959 16.5427 5.86438ZM12.4521 11.2698C12.4521 10.9289 12.3182 10.6367 12.0503 10.3932C11.7825 10.1498 11.4781 10.028 11.1372 10.028C10.7964 10.028 10.492 10.1498 10.2242 10.3932C9.95634 10.6367 9.82242 10.9289 9.82242 11.2698C9.82242 11.6107 9.95634 11.915 10.2242 12.1829C10.492 12.4507 10.7964 12.5846 11.1372 12.5846C11.4781 12.5846 11.7825 12.4507 12.0503 12.1829C12.3182 11.915 12.4521 11.6107 12.4521 11.2698Z" fill="#050B20"/>
</svg>
