<svg width="15" height="21" viewBox="0 0 15 21" fill="none" xmlns="http://www.w3.org/2000/svg">
<path d="M11.3643 0.682617H3.24808C1.70903 0.682617 0.458115 1.93353 0.458115 3.47258V17.676C0.458115 19.215 1.70903 20.466 3.24808 20.466H11.3643C12.9034 20.466 14.1543 19.215 14.1543 17.676V3.47258C14.1543 1.93353 12.9034 0.682617 11.3643 0.682617ZM12.6325 17.676C12.6325 18.375 12.0633 18.9442 11.3643 18.9442H3.24808C2.54906 18.9442 1.97991 18.375 1.97991 17.676V3.47258C1.97991 2.77357 2.54906 2.20441 3.24808 2.20441H11.3643C12.0633 2.20441 12.6325 2.77357 12.6325 3.47258V17.676ZM9.08162 4.48711C9.08162 4.90712 8.74074 5.248 8.32072 5.248H6.29167C5.87165 5.248 5.53077 4.90712 5.53077 4.48711C5.53077 4.06709 5.87165 3.72621 6.29167 3.72621H8.32072C8.74074 3.72621 9.08162 4.06709 9.08162 4.48711Z" fill="#050B20"/>
</svg>
