<svg width="18" height="17" viewBox="0 0 18 17" fill="none" xmlns="http://www.w3.org/2000/svg">
<path d="M7.46996 16.8701C6.90996 16.8701 6.44996 16.6901 6.08996 16.3301L0.809961 11.0501C0.409961 10.6501 0.209961 10.1801 0.209961 9.64012C0.209961 9.10012 0.409961 8.63012 0.809961 8.23012L7.88996 1.15012C8.64996 0.390118 9.56996 0.0101185 10.65 0.0101185H15.15C15.71 0.0101185 16.18 0.210119 16.56 0.610119C16.94 1.01012 17.13 1.47012 17.13 1.99012V6.49012C17.13 7.57012 16.75 8.47012 15.99 9.19012L8.84996 16.3301C8.48996 16.6901 8.02996 16.8701 7.46996 16.8701ZM10.65 1.33012C9.92996 1.33012 9.32996 1.59012 8.84996 2.11012L1.76996 9.19012C1.60996 9.31012 1.52996 9.46012 1.52996 9.64012C1.52996 9.82012 1.60996 9.99012 1.76996 10.1501L6.98996 15.3701C7.10996 15.5301 7.26996 15.6101 7.46996 15.6101C7.66996 15.6101 7.82996 15.5301 7.94996 15.3701L15.03 8.29012C15.55 7.81012 15.81 7.21012 15.81 6.49012V1.99012C15.81 1.83012 15.74 1.68012 15.6 1.54012C15.46 1.40012 15.31 1.33012 15.15 1.33012H10.65ZM12.33 6.73012C11.81 6.73012 11.35 6.53012 10.95 6.13012C10.55 5.73012 10.35 5.26012 10.35 4.72012C10.35 4.18012 10.55 3.72012 10.95 3.34012C11.35 2.96012 11.82 2.77012 12.36 2.77012C12.9 2.77012 13.36 2.96012 13.74 3.34012C14.12 3.72012 14.31 4.18012 14.31 4.72012C14.31 5.26012 14.12 5.73012 13.74 6.13012C13.36 6.53012 12.89 6.73012 12.33 6.73012ZM12.33 4.09012C12.17 4.09012 12.02 4.15012 11.88 4.27012C11.74 4.39012 11.67 4.54012 11.67 4.72012C11.67 4.90012 11.74 5.06012 11.88 5.20012C12.02 5.34012 12.18 5.41012 12.36 5.41012C12.54 5.41012 12.69 5.34012 12.81 5.20012C12.93 5.06012 12.99 4.90012 12.99 4.72012C12.99 4.54012 12.93 4.39012 12.81 4.27012C12.69 4.15012 12.53 4.09012 12.33 4.09012Z" fill="white"/>
</svg>
