<svg width="23" height="24" viewBox="0 0 23 24" fill="none" xmlns="http://www.w3.org/2000/svg">
<path fill-rule="evenodd" clip-rule="evenodd" d="M9.04177 3.4501C9.58007 2.88749 10.3102 2.57143 11.0714 2.57143C11.8327 2.57143 12.5628 2.88749 13.1011 3.4501C13.4412 3.80559 13.6872 4.24109 13.8221 4.71429H8.32071C8.4557 4.24109 8.70165 3.80559 9.04177 3.4501ZM5.80418 4.71429C5.97701 3.55407 6.49775 2.47246 7.30206 1.63183C8.30177 0.586989 9.65765 0 11.0714 0C12.4852 0 13.8411 0.586989 14.8408 1.63183C15.6451 2.47246 16.1659 3.55407 16.3386 4.71429H20.9127C21.5921 4.71429 22.1429 5.28993 22.1429 6C22.1429 6.71009 21.5921 7.28571 20.9127 7.28571H19.2725V21.4286C19.2725 22.1105 19.0133 22.7647 18.5519 23.2469C18.0905 23.7291 17.4646 24 16.8122 24H5.33069C4.67816 24 4.05237 23.7291 3.59098 23.2469C3.12959 22.7647 2.87037 22.1105 2.87037 21.4286V7.28571H1.23016C0.55076 7.28571 0 6.71009 0 6C0 5.28993 0.55076 4.71429 1.23016 4.71429H5.80418ZM7.79101 10.0739C8.35717 10.0739 8.81614 10.5536 8.81614 11.1454V18.0051C8.81614 18.5967 8.35717 19.0766 7.79101 19.0766C7.22484 19.0766 6.76587 18.5967 6.76587 18.0051V11.1454C6.76587 10.5536 7.22484 10.0739 7.79101 10.0739ZM15.377 11.1454C15.377 10.5536 14.918 10.0739 14.3519 10.0739C13.7857 10.0739 13.3267 10.5536 13.3267 11.1454V18.0051C13.3267 18.5967 13.7857 19.0766 14.3519 19.0766C14.918 19.0766 15.377 18.5967 15.377 18.0051V11.1454Z" fill="#FA3F3F"/>
</svg>
