<svg width="135" height="135" viewBox="0 0 135 135" fill="none" xmlns="http://www.w3.org/2000/svg">
<g clip-path="url(#clip0_2773_266)">
<g clip-path="url(#clip1_2773_266)">
<path d="M52.7552 18.5869C44.494 18.5869 37.0062 23.4475 33.643 30.993L20.0346 61.5245C11.8766 62.085 5.4313 68.8758 5.4313 77.1761V92.8696C5.4313 100.092 11.2866 105.948 18.5093 105.948H22.0939C22.1133 104.941 22.1388 103.935 22.1711 102.929C21.3197 101.193 20.8397 99.2425 20.8397 97.179L20.6017 87.9C20.6017 81.0378 21.9978 74.735 27.0915 73.7088C29.5127 73.2211 31.5399 71.5715 32.532 69.3095L49.3365 30.993C52.6994 23.4475 60.1873 18.5869 68.4487 18.5869H52.7552Z" fill="#CEE1F2"/>
<path d="M115.809 105.948C123.032 105.948 128.887 100.092 128.887 92.8696V77.1761C128.887 68.5088 121.861 61.4826 113.193 61.4826L97.076 30.0628C93.5135 23.024 86.2953 18.5869 78.4062 18.5869H52.7552C44.494 18.5869 37.0062 23.4475 33.643 30.993L20.0346 61.5245C11.8766 62.085 5.4313 68.8758 5.4313 77.1761V92.8696C5.4313 100.092 11.2866 105.948 18.5093 105.948" stroke="#405FF2" stroke-width="6.08719" stroke-miterlimit="10" stroke-linecap="round" stroke-linejoin="round"/>
<path d="M46.4965 116.41C52.2747 116.41 56.9589 111.726 56.9589 105.947C56.9589 100.169 52.2747 95.4851 46.4965 95.4851C40.7183 95.4851 36.0342 100.169 36.0342 105.947C36.0342 111.726 40.7183 116.41 46.4965 116.41Z" stroke="#405FF2" stroke-width="6.08719" stroke-miterlimit="10" stroke-linecap="round" stroke-linejoin="round"/>
<path d="M77.0991 105.948H60.8818" stroke="#405FF2" stroke-width="6.08719" stroke-miterlimit="10" stroke-linecap="round" stroke-linejoin="round"/>
<path d="M87.8248 116.41C93.603 116.41 98.2871 111.726 98.2871 105.947C98.2871 100.169 93.603 95.4851 87.8248 95.4851C82.0466 95.4851 77.3624 100.169 77.3624 105.947C77.3624 111.726 82.0466 116.41 87.8248 116.41Z" stroke="#405FF2" stroke-width="6.08719" stroke-miterlimit="10" stroke-linecap="round" stroke-linejoin="round"/>
<path d="M62.9732 81.8839L77.5454 67.7537C80.4744 64.8913 78.4494 59.915 74.3554 59.915H61.0091C56.9077 59.915 54.8863 54.9226 57.8306 52.0652L72.9221 37.4189" stroke="#FF5CF3" stroke-width="6.08719" stroke-miterlimit="10" stroke-linecap="round" stroke-linejoin="round"/>
</g>
</g>
<defs>
<clipPath id="clip0_2773_266">
<rect width="133.918" height="133.918" fill="white" transform="translate(0.201172 0.539307)"/>
</clipPath>
<clipPath id="clip1_2773_266">
<rect width="133.918" height="133.918" fill="white" transform="translate(0.201508 0.539307)"/>
</clipPath>
</defs>
</svg>
