<svg width="13" height="14" viewBox="0 0 13 14" fill="none" xmlns="http://www.w3.org/2000/svg">
<path d="M11.6165 4.66H9.31988C9.17543 4.66 9.05988 4.71056 8.97321 4.81167C8.88654 4.91278 8.84321 5.02833 8.84321 5.15833C8.84321 5.28833 8.88654 5.39667 8.97321 5.48333C9.05988 5.57 9.17543 5.61333 9.31988 5.61333H11.6165C11.761 5.61333 11.8765 5.65667 11.9632 5.74333C12.0499 5.83 12.0932 5.94556 12.0932 6.09V12.1133C12.0932 12.2289 12.0499 12.3372 11.9632 12.4383C11.8765 12.5394 11.761 12.59 11.6165 12.59H2.34321C2.19877 12.59 2.08321 12.5394 1.99654 12.4383C1.90988 12.3372 1.86654 12.2289 1.86654 12.1133V6.09C1.86654 5.94556 1.90988 5.83 1.99654 5.74333C2.08321 5.65667 2.19877 5.61333 2.34321 5.61333H4.63988C4.78432 5.61333 4.89988 5.57 4.98654 5.48333C5.07321 5.39667 5.11654 5.28833 5.11654 5.15833C5.11654 5.02833 5.07321 4.91278 4.98654 4.81167C4.89988 4.71056 4.78432 4.66 4.63988 4.66H2.34321C1.96765 4.66 1.64265 4.79722 1.36821 5.07167C1.09377 5.34611 0.956543 5.68556 0.956543 6.09V12.1133C0.956543 12.4889 1.09377 12.8139 1.36821 13.0883C1.64265 13.3628 1.96765 13.5 2.34321 13.5H11.6165C11.9921 13.5 12.3171 13.3628 12.5915 13.0883C12.866 12.8139 13.0032 12.4889 13.0032 12.1133V6.09C13.0032 5.68556 12.866 5.34611 12.5915 5.07167C12.3171 4.79722 11.9921 4.66 11.6165 4.66ZM9.62321 2.97L7.32654 0.63C7.21099 0.543333 7.09543 0.5 6.97988 0.5C6.86432 0.5 6.74876 0.543333 6.63321 0.63L4.33654 2.97C4.24988 3.05667 4.20654 3.165 4.20654 3.295C4.20654 3.425 4.24988 3.53333 4.33654 3.62C4.42321 3.70667 4.53154 3.75 4.66154 3.75C4.79154 3.75 4.89988 3.70667 4.98654 3.62L6.50321 2.10333V9.77333C6.50321 9.91778 6.55377 10.0333 6.65488 10.12C6.75599 10.2067 6.86432 10.25 6.97988 10.25C7.09543 10.25 7.20376 10.2067 7.30488 10.12C7.40599 10.0333 7.45654 9.91778 7.45654 9.77333V2.10333L8.97321 3.62C9.05988 3.70667 9.16821 3.75 9.29821 3.75C9.42821 3.75 9.53654 3.69944 9.62321 3.59833C9.70988 3.49722 9.75321 3.38889 9.75321 3.27333C9.75321 3.15778 9.70988 3.05667 9.62321 2.97Z" fill="#050B20"/>
</svg>
