<svg width="19" height="19" viewBox="0 0 19 19" fill="none" xmlns="http://www.w3.org/2000/svg">
<path d="M17.4601 12.4002C17.8601 11.3602 18.0601 10.3002 18.0601 9.22021C18.0601 8.02022 17.8301 6.87022 17.3701 5.77022C16.9101 4.67021 16.2601 3.70022 15.4201 2.86022C14.5801 2.02022 13.6101 1.37021 12.5101 0.910215C11.4101 0.450214 10.2601 0.220215 9.06006 0.220215C7.86006 0.220215 6.71006 0.450214 5.61006 0.910215C4.51006 1.37021 3.54006 2.02022 2.70006 2.86022C1.86006 3.70022 1.21006 4.67021 0.750059 5.77022C0.290059 6.87022 0.0600586 8.02022 0.0600586 9.22021C0.0600586 10.4202 0.290059 11.5702 0.750059 12.6702C1.21006 13.7702 1.86006 14.7402 2.70006 15.5802C3.54006 16.4202 4.51006 17.0702 5.61006 17.5302C6.71006 17.9902 7.86006 18.2202 9.06006 18.2202C10.7401 18.2202 12.3001 17.7802 13.7401 16.9002C13.9001 16.8202 14.0001 16.6802 14.0401 16.4802C14.0801 16.2802 14.0501 16.1002 13.9501 15.9402C13.8501 15.7802 13.7101 15.6802 13.5301 15.6402C13.3501 15.6002 13.1601 15.6202 12.9601 15.7002C12.4801 16.0202 11.9401 16.2802 11.3401 16.4802C11.3801 14.7202 11.7401 13.5002 12.4201 12.8202C12.8601 12.3802 13.4201 12.1602 14.1001 12.1602C14.6601 12.1602 15.2601 12.3002 15.9001 12.5802C15.7401 12.8602 15.5601 13.1402 15.3601 13.4202C15.2401 13.5802 15.2001 13.7602 15.2401 13.9602C15.2801 14.1602 15.3801 14.3102 15.5401 14.4102C15.7001 14.5102 15.8801 14.5402 16.0801 14.5002C16.2801 14.4602 16.4401 14.3602 16.5601 14.2002C16.8801 13.6802 17.1601 13.1402 17.4001 12.5802L17.4601 12.4002ZM9.06006 1.60022C10.3001 1.60022 11.4501 1.88021 12.5101 2.44022C13.5701 3.00022 14.4601 3.76021 15.1801 4.72021C15.9001 5.68021 16.3601 6.76021 16.5601 7.96021C15.5601 7.60021 14.5401 7.30021 13.5001 7.06021C11.9001 6.70022 10.4101 6.52022 9.03006 6.52022C7.65006 6.52022 6.18006 6.68021 4.62006 7.00022C3.58006 7.24022 2.56006 7.54022 1.56006 7.90022C1.80006 6.74022 2.27006 5.68021 2.97006 4.72021C3.67006 3.76021 4.55006 3.00022 5.61006 2.44022C6.67006 1.88021 7.82006 1.60022 9.06006 1.60022ZM2.22006 12.5802C2.90006 12.3002 3.50006 12.1602 4.02006 12.1602H4.08006C4.84006 12.1602 5.42006 12.4202 5.82006 12.9402C6.42006 13.6602 6.74006 14.8402 6.78006 16.4802C5.78006 16.1602 4.89006 15.6602 4.11006 14.9802C3.33006 14.3002 2.70006 13.5002 2.22006 12.5802ZM14.1001 10.7802C13.0201 10.7802 12.1401 11.1202 11.4601 11.8002C10.4601 12.8002 9.96006 14.4402 9.96006 16.7202V16.7802C9.64006 16.8202 9.34006 16.8402 9.06006 16.8402C8.78006 16.8402 8.48006 16.8202 8.16006 16.7802V16.7202C8.16006 14.4402 7.68006 12.8002 6.72006 11.8002C6.04006 11.1202 5.16006 10.7802 4.08006 10.7802H4.02006C3.30006 10.7802 2.54006 10.9402 1.74006 11.2602C1.58006 10.6602 1.48006 10.0602 1.44006 9.46021C2.24006 9.14021 3.14006 8.86022 4.14006 8.62022C5.90006 8.14021 7.54006 7.90022 9.06006 7.90022C10.5801 7.90022 12.2801 8.16022 14.1601 8.68021C15.1201 8.92021 15.9401 9.18021 16.6201 9.46021C16.6201 10.0602 16.5401 10.6602 16.3801 11.2602C15.5801 10.9402 14.8201 10.7802 14.1001 10.7802ZM11.4601 9.88021C11.4601 10.0802 11.3901 10.2502 11.2501 10.3902C11.1101 10.5302 10.9401 10.6002 10.7401 10.6002H7.32006C7.12006 10.6002 6.96006 10.5302 6.84006 10.3902C6.72006 10.2502 6.66006 10.0802 6.66006 9.88021C6.66006 9.68021 6.72006 9.51021 6.84006 9.37022C6.96006 9.23022 7.12006 9.16022 7.32006 9.16022H10.7401C10.9401 9.16022 11.1101 9.23022 11.2501 9.37022C11.3901 9.51021 11.4601 9.68021 11.4601 9.88021Z" fill="#050B20"/>
</svg>
