<svg width="23" height="22" viewBox="0 0 23 22" fill="none" xmlns="http://www.w3.org/2000/svg">
<path d="M4.07599 2.09372C3.39423 2.09372 2.80986 2.3372 2.32288 2.82418C1.83591 3.31115 1.59242 3.9077 1.59242 4.61381C1.59242 5.31992 1.83591 5.91647 2.32288 6.40344C2.80986 6.89042 3.39423 7.1339 4.07599 7.1339C4.75776 7.1339 5.34213 6.89042 5.8291 6.40344C6.31608 5.91647 6.55957 5.31992 6.55957 4.61381C6.55957 3.9077 6.31608 3.31115 5.8291 2.82418C5.34213 2.3372 4.75776 2.09372 4.07599 2.09372ZM4.07599 3.48159C4.36818 3.48159 4.63601 3.59116 4.8795 3.8103C5.12299 4.02944 5.24473 4.29728 5.24473 4.61381C5.24473 4.93034 5.12299 5.19818 4.8795 5.41732C4.63601 5.63646 4.36818 5.74603 4.07599 5.74603C3.78381 5.74603 3.51597 5.63646 3.27249 5.41732C3.029 5.19818 2.90725 4.93034 2.90725 4.61381C2.90725 4.29728 3.029 4.02944 3.27249 3.8103C3.51597 3.59116 3.78381 3.48159 4.07599 3.48159ZM4.07599 14.8768C3.39423 14.8768 2.80986 15.1203 2.32288 15.6073C1.83591 16.0942 1.59242 16.6908 1.59242 17.3969C1.59242 18.103 1.83591 18.6996 2.32288 19.1865C2.80986 19.6735 3.39423 19.917 4.07599 19.917C4.75776 19.917 5.34213 19.6735 5.8291 19.1865C6.31608 18.6996 6.55957 18.103 6.55957 17.3969C6.55957 16.6908 6.31608 16.0942 5.8291 15.6073C5.34213 15.1203 4.75776 14.8768 4.07599 14.8768ZM4.07599 16.2647C4.36818 16.2647 4.63601 16.3743 4.8795 16.5934C5.12299 16.8125 5.24473 17.0804 5.24473 17.3969C5.24473 17.7134 5.12299 17.9813 4.8795 18.2004C4.63601 18.4195 4.36818 18.5291 4.07599 18.5291C3.78381 18.5291 3.51597 18.4195 3.27249 18.2004C3.029 17.9813 2.90725 17.7134 2.90725 17.3969C2.90725 17.0804 3.029 16.8125 3.27249 16.5934C3.51597 16.3743 3.78381 16.2647 4.07599 16.2647ZM11.3806 2.09372C10.6989 2.09372 10.1145 2.3372 9.62751 2.82418C9.14053 3.31115 8.89704 3.9077 8.89704 4.61381C8.89704 5.31992 9.14053 5.91647 9.62751 6.40344C10.1145 6.89042 10.6989 7.1339 11.3806 7.1339C12.0624 7.1339 12.6467 6.89042 13.1337 6.40344C13.6207 5.91647 13.8642 5.31992 13.8642 4.61381C13.8642 3.9077 13.6207 3.31115 13.1337 2.82418C12.6467 2.3372 12.0624 2.09372 11.3806 2.09372ZM11.3806 3.48159C11.6728 3.48159 11.9406 3.59116 12.1841 3.8103C12.4276 4.02944 12.5494 4.29728 12.5494 4.61381C12.5494 4.93034 12.4276 5.19818 12.1841 5.41732C11.9406 5.63646 11.6728 5.74603 11.3806 5.74603C11.0884 5.74603 10.8206 5.63646 10.5771 5.41732C10.3336 5.19818 10.2119 4.93034 10.2119 4.61381C10.2119 4.29728 10.3336 4.02944 10.5771 3.8103C10.8206 3.59116 11.0884 3.48159 11.3806 3.48159ZM11.3806 14.8768C10.6989 14.8768 10.1145 15.1203 9.62751 15.6073C9.14053 16.0942 8.89704 16.6908 8.89704 17.3969C8.89704 18.103 9.14053 18.6996 9.62751 19.1865C10.1145 19.6735 10.6989 19.917 11.3806 19.917C12.0624 19.917 12.6467 19.6735 13.1337 19.1865C13.6207 18.6996 13.8642 18.103 13.8642 17.3969C13.8642 16.6908 13.6207 16.0942 13.1337 15.6073C12.6467 15.1203 12.0624 14.8768 11.3806 14.8768ZM11.3806 16.2647C11.6728 16.2647 11.9406 16.3743 12.1841 16.5934C12.4276 16.8125 12.5494 17.0804 12.5494 17.3969C12.5494 17.7134 12.4276 17.9813 12.1841 18.2004C11.9406 18.4195 11.6728 18.5291 11.3806 18.5291C11.0884 18.5291 10.8206 18.4195 10.5771 18.2004C10.3336 17.9813 10.2119 17.7134 10.2119 17.3969C10.2119 17.0804 10.3336 16.8125 10.5771 16.5934C10.8206 16.3743 11.0884 16.2647 11.3806 16.2647ZM18.6852 2.09372C18.0035 2.09372 17.4191 2.3372 16.9321 2.82418C16.4452 3.31115 16.2017 3.9077 16.2017 4.61381C16.2017 5.31992 16.4452 5.91647 16.9321 6.40344C17.4191 6.89042 18.0035 7.1339 18.6852 7.1339C19.367 7.1339 19.9514 6.89042 20.4383 6.40344C20.9253 5.91647 21.1688 5.31992 21.1688 4.61381C21.1688 3.9077 20.9253 3.31115 20.4383 2.82418C19.9514 2.3372 19.367 2.09372 18.6852 2.09372ZM18.6852 3.48159C18.9774 3.48159 19.2453 3.59116 19.4887 3.8103C19.7322 4.02944 19.854 4.29728 19.854 4.61381C19.854 4.93034 19.7322 5.19818 19.4887 5.41732C19.2453 5.63646 18.9774 5.74603 18.6852 5.74603C18.3931 5.74603 18.1252 5.63646 17.8817 5.41732C17.6382 5.19818 17.5165 4.93034 17.5165 4.61381C17.5165 4.29728 17.6382 4.02944 17.8817 3.8103C18.1252 3.59116 18.3931 3.48159 18.6852 3.48159ZM18.6852 14.8768C18.0035 14.8768 17.4191 15.1203 16.9321 15.6073C16.4452 16.0942 16.2017 16.6908 16.2017 17.3969C16.2017 18.103 16.4452 18.6996 16.9321 19.1865C17.4191 19.6735 18.0035 19.917 18.6852 19.917C19.367 19.917 19.9514 19.6735 20.4383 19.1865C20.9253 18.6996 21.1688 18.103 21.1688 17.3969C21.1688 16.6908 20.9253 16.0942 20.4383 15.6073C19.9514 15.1203 19.367 14.8768 18.6852 14.8768ZM18.6852 16.2647C18.9774 16.2647 19.2453 16.3743 19.4887 16.5934C19.7322 16.8125 19.854 17.0804 19.854 17.3969C19.854 17.7134 19.7322 17.9813 19.4887 18.2004C19.2453 18.4195 18.9774 18.5291 18.6852 18.5291C18.3931 18.5291 18.1252 18.4195 17.8817 18.2004C17.6382 17.9813 17.5165 17.7134 17.5165 17.3969C17.5165 17.0804 17.6382 16.8125 17.8817 16.5934C18.1252 16.3743 18.3931 16.2647 18.6852 16.2647ZM3.41858 6.40344V15.5342C3.41858 15.729 3.47945 15.8995 3.60119 16.0455C3.72294 16.1916 3.8812 16.2647 4.07599 16.2647C4.27078 16.2647 4.42905 16.1916 4.55079 16.0455C4.67254 15.8995 4.73341 15.7534 4.73341 15.6073V6.40344C4.73341 6.25735 4.67254 6.11126 4.55079 5.96517C4.42905 5.81907 4.27078 5.74603 4.07599 5.74603C3.8812 5.74603 3.72294 5.81907 3.60119 5.96517C3.47945 6.11126 3.41858 6.25735 3.41858 6.40344ZM10.7232 6.40344V15.5342C10.7232 15.729 10.7841 15.8995 10.9058 16.0455C11.0276 16.1916 11.1858 16.2647 11.3806 16.2647C11.5754 16.2647 11.7337 16.1916 11.8554 16.0455C11.9772 15.8995 12.038 15.7534 12.038 15.6073V6.40344C12.038 6.25735 11.9772 6.11126 11.8554 5.96517C11.7337 5.81907 11.5754 5.74603 11.3806 5.74603C11.1858 5.74603 11.0276 5.81907 10.9058 5.96517C10.7841 6.11126 10.7232 6.25735 10.7232 6.40344ZM18.0278 6.40344V10.0558C18.0278 10.1531 18.0035 10.2262 17.9548 10.2749C17.9061 10.3236 17.8574 10.3479 17.8087 10.3479H4.07599C3.8812 10.3479 3.72294 10.4088 3.60119 10.5306C3.47945 10.6523 3.41858 10.8106 3.41858 11.0054C3.41858 11.2001 3.47945 11.3584 3.60119 11.4802C3.72294 11.6019 3.8812 11.6628 4.07599 11.6628H17.8087C18.247 11.6628 18.6122 11.5167 18.9044 11.2245C19.1966 10.9323 19.3427 10.5427 19.3427 10.0558V6.47649C19.3427 6.2817 19.2818 6.11126 19.16 5.96517C19.0383 5.81907 18.88 5.74603 18.6852 5.74603C18.4904 5.74603 18.3322 5.81907 18.2104 5.96517C18.0887 6.11126 18.0278 6.25735 18.0278 6.40344Z" fill="#050B20"/>
</svg>
