<svg width="19" height="15" viewBox="0 0 19 15" fill="none" xmlns="http://www.w3.org/2000/svg">
<path d="M17.1185 3.71683C17.1185 3.89517 17.1185 4.03783 17.1185 4.21617C17.1185 9.1739 13.3735 14.845 6.48971 14.845C4.34969 14.845 2.388 14.2386 0.747312 13.1686C1.03265 13.2043 1.31799 13.2399 1.63899 13.2399C3.38668 13.2399 4.9917 12.6336 6.27571 11.6349C4.63503 11.5993 3.24401 10.5292 2.78034 9.03123C3.03001 9.0669 3.24401 9.10256 3.49368 9.10256C3.81468 9.10256 4.17135 9.03123 4.45669 8.95989C2.74467 8.60322 1.46065 7.10521 1.46065 5.28618V5.25052C1.95999 5.53585 2.56633 5.67852 3.17267 5.71419C2.13833 5.03651 1.49632 3.89517 1.49632 2.61115C1.49632 1.89781 1.67466 1.2558 1.99566 0.720794C3.85035 2.96782 6.63238 4.46584 9.73542 4.64418C9.66409 4.35884 9.62842 4.0735 9.62842 3.78816C9.62842 1.71947 11.3048 0.0431195 13.3735 0.0431195C14.4435 0.0431195 15.4065 0.471125 16.1198 1.22013C16.9402 1.0418 17.7605 0.720794 18.4739 0.292789C18.1885 1.18447 17.6178 1.89781 16.8332 2.36148C17.5822 2.29015 18.3312 2.07614 18.9732 1.79081C18.4739 2.53982 17.8319 3.18182 17.1185 3.71683Z" fill="#050B20"/>
<a href="https://www.figma.com/design/PzQUNVEIeMrv8HjdXbjYra?node-id=17-1527">
<rect fill="black" fill-opacity="0" x="0.228269" y="-1.36962" width="18.2616" height="21.0008"/>
</a>
</svg>
