<svg width="14" height="14" viewBox="0 0 14 14" fill="none" xmlns="http://www.w3.org/2000/svg">
<path d="M12.6529 0.786133H5.01766C4.82583 0.786133 4.6706 0.941365 4.6706 1.1332C4.6706 1.32504 4.82583 1.48027 5.01766 1.48027H11.8151L0.60759 12.6878C0.47201 12.8234 0.47201 13.043 0.60759 13.1785C0.675364 13.2463 0.764189 13.2802 0.852981 13.2802C0.941774 13.2802 1.03057 13.2463 1.09837 13.1785L12.3059 1.97102V8.76847C12.3059 8.96031 12.4611 9.11554 12.6529 9.11554C12.8448 9.11554 13 8.96031 13 8.76847V1.1332C13 0.941365 12.8447 0.786133 12.6529 0.786133Z" fill="white" stroke="white" stroke-width="0.733042"/>
</svg>
