<svg width="145" height="33" viewBox="0 0 145 33" fill="none" xmlns="http://www.w3.org/2000/svg">
<g clip-path="url(#clip0_2773_830)">
<g clip-path="url(#clip1_2773_830)">
<g clip-path="url(#clip2_2773_830)">
<path d="M22.96 14.64C22.96 12.4 23.408 10.4053 24.304 8.656C25.2213 6.90667 26.5227 5.552 28.208 4.592C29.8933 3.61067 31.8773 3.12 34.16 3.12C36.1227 3.12 37.872 3.49333 39.408 4.24C40.9653 4.96533 42.224 6 43.184 7.344C44.1653 8.688 44.816 10.256 45.136 12.048H37.648C37.3067 11.3013 36.816 10.7253 36.176 10.32C35.5573 9.89333 34.8427 9.68 34.032 9.68C32.8373 9.68 31.888 10.128 31.184 11.024C30.5013 11.92 30.16 13.1253 30.16 14.64C30.16 16.1547 30.5013 17.36 31.184 18.256C31.888 19.152 32.8373 19.6 34.032 19.6C34.8427 19.6 35.5573 19.3973 36.176 18.992C36.816 18.5653 37.3067 17.9787 37.648 17.232H45.136C44.816 19.024 44.1653 20.592 43.184 21.936C42.224 23.28 40.9653 24.3253 39.408 25.072C37.872 25.7973 36.1227 26.16 34.16 26.16C31.8773 26.16 29.8933 25.68 28.208 24.72C26.5227 23.7387 25.2213 22.3733 24.304 20.624C23.408 18.8747 22.96 16.88 22.96 14.64ZM46.7338 16.976C46.7338 15.0773 47.0538 13.4347 47.6938 12.048C48.3551 10.64 49.2511 9.57333 50.3818 8.848C51.5124 8.10133 52.7818 7.728 54.1898 7.728C55.3631 7.728 56.3764 7.97333 57.2298 8.464C58.0831 8.93333 58.7338 9.584 59.1818 10.416V7.952H66.2538V26H59.1818V23.536C58.7338 24.368 58.0831 25.0293 57.2298 25.52C56.3764 25.9893 55.3631 26.224 54.1898 26.224C52.7818 26.224 51.5124 25.8613 50.3818 25.136C49.2511 24.3893 48.3551 23.3227 47.6938 21.936C47.0538 20.528 46.7338 18.8747 46.7338 16.976ZM59.1818 16.976C59.1818 16.016 58.9364 15.2693 58.4458 14.736C57.9551 14.2027 57.3258 13.936 56.5578 13.936C55.7898 13.936 55.1604 14.2027 54.6698 14.736C54.1791 15.2693 53.9338 16.016 53.9338 16.976C53.9338 17.936 54.1791 18.6827 54.6698 19.216C55.1604 19.7493 55.7898 20.016 56.5578 20.016C57.3258 20.016 57.9551 19.7493 58.4458 19.216C58.9364 18.6827 59.1818 17.936 59.1818 16.976ZM76.5478 11.28C77.2731 10.2347 78.1584 9.40267 79.2038 8.784C80.2491 8.144 81.3371 7.824 82.4678 7.824V15.408H80.4518C79.1078 15.408 78.1158 15.6427 77.4758 16.112C76.8571 16.5813 76.5478 17.4133 76.5478 18.608V26H69.4438V7.952H76.5478V11.28ZM91.4853 2.32V26H84.3813V2.32H91.4853ZM115.078 7.952L103.526 34.64H95.7498L100.294 25.104L92.7737 7.952H100.678L104.07 17.104L107.238 7.952H115.078Z" fill="black"/>
</g>
</g>
</g>
<defs>
<clipPath id="clip0_2773_830">
<rect width="131.483" height="31.6534" fill="white" transform="translate(0.569519 0.748047)"/>
</clipPath>
<clipPath id="clip1_2773_830">
<rect width="131.483" height="31.6534" fill="white" transform="translate(0.569092 0.748047)"/>
</clipPath>
<clipPath id="clip2_2773_830">
<rect width="131.483" height="31.6534" fill="white" transform="translate(0.568665 0.748047)"/>
</clipPath>
</defs>
</svg>
